<svg viewBox="0 0 171 25" fill="none" xmlns="http://www.w3.org/2000/svg"><path d="M16.13 8.154H5.449L.395 13.208V0h23.89L16.13 8.154z" fill="#F63"/><path d="M24.284 4.077v2.526l-6.202 6.26H7.401L.395 19.81v-2.527l6.26-6.201h10.68l6.95-7.006z" fill="#F63"/><path d="M19.23 15.736H8.55L.395 23.891h23.89V10.683l-5.054 5.053z" fill="#F63"/><path d="M36.23 0v23.889h13.438v-3.56H40.02V0h-3.79zm16.538 3.503h3.79V0h-3.79v3.503zM56.5 23.889h-3.675V6.029H56.5v17.86z" fill="#000000"/><path fill-rule="evenodd" clip-rule="evenodd" d="M79.355 14.988c0 5.34-3.848 9.36-9.303 9.36-2.527 0-4.709-.918-6.317-2.469l-.632 2.01h-2.641V0h3.675v7.695c1.55-1.32 3.618-2.067 5.915-2.067 5.398 0 9.303 3.962 9.303 9.36zm-3.79 0c0-3.388-2.47-5.857-5.8-5.857-3.33 0-5.858 2.526-5.858 5.857 0 3.33 2.47 5.858 5.858 5.858 3.33 0 5.8-2.527 5.8-5.858zm24.176 1.264h-14.47c.401 2.87 2.526 4.651 5.454 4.651 2.125 0 3.848-.976 4.824-2.642h3.848c-1.436 3.79-4.71 6.03-8.672 6.03-5.225 0-9.188-4.02-9.188-9.36s3.963-9.36 9.188-9.36c5.456 0 9.074 4.191 9.074 9.417 0 .402 0 .862-.058 1.264zm-14.413-2.987h10.796c-.69-2.699-2.7-4.307-5.398-4.307-2.814-.057-4.767 1.608-5.398 4.307z" fill="#000000"/><path d="M111.398 9.418c-3.044 0-4.594 1.723-4.594 4.939v9.532h-3.676V6.03h2.298l.803 2.47c1.264-1.723 3.044-2.527 5.456-2.527h1.608v3.446h-1.895zm13.726 11.142c-2.183 0-3.331-1.207-3.331-3.331v-7.81h5.283V6.26h-5.283V2.528l-6.834 6.833h3.216v8.155c0 3.962 2.412 6.374 6.317 6.374h2.699v-3.33h-2.067z" fill="#000000"/><path fill-rule="evenodd" clip-rule="evenodd" d="M147.406 16.252h-14.471c.402 2.87 2.527 4.651 5.455 4.651 2.125 0 3.848-.976 4.824-2.642h3.848c-1.436 3.79-4.709 6.03-8.672 6.03-5.225 0-9.188-4.02-9.188-9.36s3.963-9.36 9.188-9.36c5.456 0 9.074 4.191 9.074 9.417 0 .201-.015.416-.029.631-.014.216-.029.432-.029.633zm-14.414-2.987h10.796c-.689-2.699-2.699-4.307-5.398-4.307-2.813-.057-4.766 1.608-5.398 4.307z" fill="#000000"/><path d="M151.482 23.89h-4.019l6.374-9.245-5.858-8.614h4.078l3.962 6.03 4.077-6.03h4.02l-5.915 8.441 6.432 9.418h-4.135l-4.479-6.834-4.537 6.834zM164.748.517h1.148V0h-2.986v.517h1.263v2.986h.575V.517zm3.56 2.986h.115l1.148-2.584.46 2.584h.574L170.031 0h-.517l-1.206 2.584L167.102 0h-.517l-.574 3.503h.574l.46-2.584 1.263 2.584z" fill="#000000"/>
</svg>